<svg xmlns="http://www.w3.org/2000/svg" width="900" height="210" viewBox="0 0 900 210" role="img" aria-label="31 GitHub contributions in the last year">
  <defs><pattern id="grid" width="18" height="18" patternUnits="userSpaceOnUse"><path d="M18 0H0V18" fill="none" stroke="#2b2437" stroke-width=".55"/></pattern></defs>
  <path d="M16 2H868L898 32V178L868 208H16L2 194V16Z" fill="#111018" stroke="#5b4a75" stroke-width="1.4"/>
  <path d="M16 11H862L889 38M889 172L862 199H16M11 194V16" fill="none" stroke="#7b61a8" stroke-width="1" opacity=".8"/>
  <rect x="16" y="50" width="868" height="118" fill="url(#grid)" opacity=".42"/>
  <path d="M24 52h82l10 10h96M876 52h-72l-10 10h-88M24 168h90M786 168h90" fill="none" stroke="#a58ad6" stroke-width="1.1"/>
  <text x="25" y="32" fill="#b79ae6" style="font: 10px Consolas, monospace; letter-spacing: 1px">ACTIVITY // 53W</text>
  <text x="875" y="32" text-anchor="end" fill="#a399b4" style="font: 10px Consolas, monospace; letter-spacing: 1px">LIVE DATA</text>
  <text x="25" y="78" fill="#a399b4" style="font: 10px Consolas, monospace">SUN</text><text x="25" y="108" fill="#a399b4" style="font: 10px Consolas, monospace">TUE</text><text x="25" y="138" fill="#a399b4" style="font: 10px Consolas, monospace">THU</text>
  <rect x="66" y="65" width="11" height="11" rx="2" fill="#25222d"><title>2025-08-31: 0 contributions</title></rect><rect x="81" y="65" width="11" height="11" rx="2" fill="#25222d"><title>2025-09-07: 0 contributions</title></rect><rect x="96" y="65" width="11" height="11" rx="2" fill="#25222d"><title>2025-09-14: 0 contributions</title></rect><rect x="111" y="65" width="11" height="11" rx="2" fill="#25222d"><title>2025-09-21: 0 contributions</title></rect><rect x="126" y="65" width="11" height="11" rx="2" fill="#25222d"><title>2025-09-28: 0 contributions</title></rect><rect x="141" y="65" width="11" height="11" rx="2" fill="#25222d"><title>2025-10-05: 0 contributions</title></rect><rect x="156" y="65" width="11" height="11" rx="2" fill="#25222d"><title>2025-10-12: 0 contributions</title></rect><rect x="171" y="65" width="11" height="11" rx="2" fill="#25222d"><title>2025-10-19: 0 contributions</title></rect><rect x="186" y="65" width="11" height="11" rx="2" fill="#25222d"><title>2025-10-26: 0 contributions</title></rect><rect x="201" y="65" width="11" height="11" rx="2" fill="#25222d"><title>2025-11-02: 0 contributions</title></rect><rect x="216" y="65" width="11" height="11" rx="2" fill="#25222d"><title>2025-11-09: 0 contributions</title></rect><rect x="231" y="65" width="11" height="11" rx="2" fill="#25222d"><title>2025-11-16: 0 contributions</title></rect><rect x="246" y="65" width="11" height="11" rx="2" fill="#25222d"><title>2025-11-23: 0 contributions</title></rect><rect x="261" y="65" width="11" height="11" rx="2" fill="#25222d"><title>2025-11-30: 0 contributions</title></rect><rect x="276" y="65" width="11" height="11" rx="2" fill="#25222d"><title>2025-12-07: 0 contributions</title></rect><rect x="291" y="65" width="11" height="11" rx="2" fill="#25222d"><title>2025-12-14: 0 contributions</title></rect><rect x="306" y="65" width="11" height="11" rx="2" fill="#25222d"><title>2025-12-21: 0 contributions</title></rect><rect x="321" y="65" width="11" height="11" rx="2" fill="#25222d"><title>2025-12-28: 0 contributions</title></rect><rect x="336" y="65" width="11" height="11" rx="2" fill="#25222d"><title>2026-01-04: 0 contributions</title></rect><rect x="351" y="65" width="11" height="11" rx="2" fill="#25222d"><title>2026-01-11: 0 contributions</title></rect><rect x="366" y="65" width="11" height="11" rx="2" fill="#25222d"><title>2026-01-18: 0 contributions</title></rect><rect x="381" y="65" width="11" height="11" rx="2" fill="#25222d"><title>2026-01-25: 0 contributions</title></rect><rect x="396" y="65" width="11" height="11" rx="2" fill="#25222d"><title>2026-02-01: 0 contributions</title></rect><rect x="411" y="65" width="11" height="11" rx="2" fill="#25222d"><title>2026-02-08: 0 contributions</title></rect><rect x="426" y="65" width="11" height="11" rx="2" fill="#25222d"><title>2026-02-15: 0 contributions</title></rect><rect x="441" y="65" width="11" height="11" rx="2" fill="#25222d"><title>2026-02-22: 0 contributions</title></rect><rect x="456" y="65" width="11" height="11" rx="2" fill="#25222d"><title>2026-03-01: 0 contributions</title></rect><rect x="471" y="65" width="11" height="11" rx="2" fill="#25222d"><title>2026-03-08: 0 contributions</title></rect><rect x="486" y="65" width="11" height="11" rx="2" fill="#25222d"><title>2026-03-15: 0 contributions</title></rect><rect x="501" y="65" width="11" height="11" rx="2" fill="#25222d"><title>2026-03-22: 0 contributions</title></rect><rect x="516" y="65" width="11" height="11" rx="2" fill="#25222d"><title>2026-03-29: 0 contributions</title></rect><rect x="531" y="65" width="11" height="11" rx="2" fill="#25222d"><title>2026-04-05: 0 contributions</title></rect><rect x="546" y="65" width="11" height="11" rx="2" fill="#25222d"><title>2026-04-12: 0 contributions</title></rect><rect x="561" y="65" width="11" height="11" rx="2" fill="#25222d"><title>2026-04-19: 0 contributions</title></rect><rect x="576" y="65" width="11" height="11" rx="2" fill="#25222d"><title>2026-04-26: 0 contributions</title></rect><rect x="591" y="65" width="11" height="11" rx="2" fill="#25222d"><title>2026-05-03: 0 contributions</title></rect><rect x="606" y="65" width="11" height="11" rx="2" fill="#25222d"><title>2026-05-10: 0 contributions</title></rect><rect x="621" y="65" width="11" height="11" rx="2" fill="#25222d"><title>2026-05-17: 0 contributions</title></rect><rect x="636" y="65" width="11" height="11" rx="2" fill="#25222d"><title>2026-05-24: 0 contributions</title></rect><rect x="651" y="65" width="11" height="11" rx="2" fill="#25222d"><title>2026-05-31: 0 contributions</title></rect><rect x="666" y="65" width="11" height="11" rx="2" fill="#25222d"><title>2026-06-07: 0 contributions</title></rect><rect x="681" y="65" width="11" height="11" rx="2" fill="#25222d"><title>2026-06-14: 0 contributions</title></rect><rect x="696" y="65" width="11" height="11" rx="2" fill="#25222d"><title>2026-06-21: 0 contributions</title></rect><rect x="711" y="65" width="11" height="11" rx="2" fill="#25222d"><title>2026-06-28: 0 contributions</title></rect><rect x="726" y="65" width="11" height="11" rx="2" fill="#25222d"><title>2026-07-05: 0 contributions</title></rect><rect x="741" y="65" width="11" height="11" rx="2" fill="#25222d"><title>2026-07-12: 0 contributions</title></rect><rect x="756" y="65" width="11" height="11" rx="2" fill="#25222d"><title>2026-07-19: 0 contributions</title></rect><rect x="771" y="65" width="11" height="11" rx="2" fill="#25222d"><title>2026-07-26: 0 contributions</title></rect><rect x="786" y="65" width="11" height="11" rx="2" fill="#25222d"><title>2026-08-02: 0 contributions</title></rect><rect x="801" y="65" width="11" height="11" rx="2" fill="#25222d"><title>2026-08-09: 0 contributions</title></rect><rect x="816" y="65" width="11" height="11" rx="2" fill="#25222d"><title>2026-08-16: 0 contributions</title></rect><rect x="831" y="65" width="11" height="11" rx="2" fill="#7650ad"><title>2026-08-23: 4 contributions</title></rect><rect x="846" y="65" width="11" height="11" rx="2" fill="#25222d"><title>2026-08-30: 0 contributions</title></rect><rect x="66" y="80" width="11" height="11" rx="2" fill="#25222d"><title>2025-09-01: 0 contributions</title></rect><rect x="81" y="80" width="11" height="11" rx="2" fill="#25222d"><title>2025-09-08: 0 contributions</title></rect><rect x="96" y="80" width="11" height="11" rx="2" fill="#25222d"><title>2025-09-15: 0 contributions</title></rect><rect x="111" y="80" width="11" height="11" rx="2" fill="#25222d"><title>2025-09-22: 0 contributions</title></rect><rect x="126" y="80" width="11" height="11" rx="2" fill="#25222d"><title>2025-09-29: 0 contributions</title></rect><rect x="141" y="80" width="11" height="11" rx="2" fill="#25222d"><title>2025-10-06: 0 contributions</title></rect><rect x="156" y="80" width="11" height="11" rx="2" fill="#25222d"><title>2025-10-13: 0 contributions</title></rect><rect x="171" y="80" width="11" height="11" rx="2" fill="#25222d"><title>2025-10-20: 0 contributions</title></rect><rect x="186" y="80" width="11" height="11" rx="2" fill="#25222d"><title>2025-10-27: 0 contributions</title></rect><rect x="201" y="80" width="11" height="11" rx="2" fill="#25222d"><title>2025-11-03: 0 contributions</title></rect><rect x="216" y="80" width="11" height="11" rx="2" fill="#25222d"><title>2025-11-10: 0 contributions</title></rect><rect x="231" y="80" width="11" height="11" rx="2" fill="#25222d"><title>2025-11-17: 0 contributions</title></rect><rect x="246" y="80" width="11" height="11" rx="2" fill="#25222d"><title>2025-11-24: 0 contributions</title></rect><rect x="261" y="80" width="11" height="11" rx="2" fill="#25222d"><title>2025-12-01: 0 contributions</title></rect><rect x="276" y="80" width="11" height="11" rx="2" fill="#25222d"><title>2025-12-08: 0 contributions</title></rect><rect x="291" y="80" width="11" height="11" rx="2" fill="#25222d"><title>2025-12-15: 0 contributions</title></rect><rect x="306" y="80" width="11" height="11" rx="2" fill="#25222d"><title>2025-12-22: 0 contributions</title></rect><rect x="321" y="80" width="11" height="11" rx="2" fill="#25222d"><title>2025-12-29: 0 contributions</title></rect><rect x="336" y="80" width="11" height="11" rx="2" fill="#25222d"><title>2026-01-05: 0 contributions</title></rect><rect x="351" y="80" width="11" height="11" rx="2" fill="#25222d"><title>2026-01-12: 0 contributions</title></rect><rect x="366" y="80" width="11" height="11" rx="2" fill="#25222d"><title>2026-01-19: 0 contributions</title></rect><rect x="381" y="80" width="11" height="11" rx="2" fill="#25222d"><title>2026-01-26: 0 contributions</title></rect><rect x="396" y="80" width="11" height="11" rx="2" fill="#25222d"><title>2026-02-02: 0 contributions</title></rect><rect x="411" y="80" width="11" height="11" rx="2" fill="#25222d"><title>2026-02-09: 0 contributions</title></rect><rect x="426" y="80" width="11" height="11" rx="2" fill="#25222d"><title>2026-02-16: 0 contributions</title></rect><rect x="441" y="80" width="11" height="11" rx="2" fill="#25222d"><title>2026-02-23: 0 contributions</title></rect><rect x="456" y="80" width="11" height="11" rx="2" fill="#25222d"><title>2026-03-02: 0 contributions</title></rect><rect x="471" y="80" width="11" height="11" rx="2" fill="#3b275d"><title>2026-03-09: 1 contributions</title></rect><rect x="486" y="80" width="11" height="11" rx="2" fill="#25222d"><title>2026-03-16: 0 contributions</title></rect><rect x="501" y="80" width="11" height="11" rx="2" fill="#25222d"><title>2026-03-23: 0 contributions</title></rect><rect x="516" y="80" width="11" height="11" rx="2" fill="#25222d"><title>2026-03-30: 0 contributions</title></rect><rect x="531" y="80" width="11" height="11" rx="2" fill="#25222d"><title>2026-04-06: 0 contributions</title></rect><rect x="546" y="80" width="11" height="11" rx="2" fill="#25222d"><title>2026-04-13: 0 contributions</title></rect><rect x="561" y="80" width="11" height="11" rx="2" fill="#25222d"><title>2026-04-20: 0 contributions</title></rect><rect x="576" y="80" width="11" height="11" rx="2" fill="#25222d"><title>2026-04-27: 0 contributions</title></rect><rect x="591" y="80" width="11" height="11" rx="2" fill="#25222d"><title>2026-05-04: 0 contributions</title></rect><rect x="606" y="80" width="11" height="11" rx="2" fill="#25222d"><title>2026-05-11: 0 contributions</title></rect><rect x="621" y="80" width="11" height="11" rx="2" fill="#25222d"><title>2026-05-18: 0 contributions</title></rect><rect x="636" y="80" width="11" height="11" rx="2" fill="#25222d"><title>2026-05-25: 0 contributions</title></rect><rect x="651" y="80" width="11" height="11" rx="2" fill="#25222d"><title>2026-06-01: 0 contributions</title></rect><rect x="666" y="80" width="11" height="11" rx="2" fill="#25222d"><title>2026-06-08: 0 contributions</title></rect><rect x="681" y="80" width="11" height="11" rx="2" fill="#25222d"><title>2026-06-15: 0 contributions</title></rect><rect x="696" y="80" width="11" height="11" rx="2" fill="#25222d"><title>2026-06-22: 0 contributions</title></rect><rect x="711" y="80" width="11" height="11" rx="2" fill="#25222d"><title>2026-06-29: 0 contributions</title></rect><rect x="726" y="80" width="11" height="11" rx="2" fill="#25222d"><title>2026-07-06: 0 contributions</title></rect><rect x="741" y="80" width="11" height="11" rx="2" fill="#25222d"><title>2026-07-13: 0 contributions</title></rect><rect x="756" y="80" width="11" height="11" rx="2" fill="#25222d"><title>2026-07-20: 0 contributions</title></rect><rect x="771" y="80" width="11" height="11" rx="2" fill="#25222d"><title>2026-07-27: 0 contributions</title></rect><rect x="786" y="80" width="11" height="11" rx="2" fill="#25222d"><title>2026-08-03: 0 contributions</title></rect><rect x="801" y="80" width="11" height="11" rx="2" fill="#25222d"><title>2026-08-10: 0 contributions</title></rect><rect x="816" y="80" width="11" height="11" rx="2" fill="#25222d"><title>2026-08-17: 0 contributions</title></rect><rect x="831" y="80" width="11" height="11" rx="2" fill="#25222d"><title>2026-08-24: 0 contributions</title></rect><rect x="66" y="95" width="11" height="11" rx="2" fill="#25222d"><title>2025-09-02: 0 contributions</title></rect><rect x="81" y="95" width="11" height="11" rx="2" fill="#25222d"><title>2025-09-09: 0 contributions</title></rect><rect x="96" y="95" width="11" height="11" rx="2" fill="#25222d"><title>2025-09-16: 0 contributions</title></rect><rect x="111" y="95" width="11" height="11" rx="2" fill="#25222d"><title>2025-09-23: 0 contributions</title></rect><rect x="126" y="95" width="11" height="11" rx="2" fill="#25222d"><title>2025-09-30: 0 contributions</title></rect><rect x="141" y="95" width="11" height="11" rx="2" fill="#25222d"><title>2025-10-07: 0 contributions</title></rect><rect x="156" y="95" width="11" height="11" rx="2" fill="#25222d"><title>2025-10-14: 0 contributions</title></rect><rect x="171" y="95" width="11" height="11" rx="2" fill="#25222d"><title>2025-10-21: 0 contributions</title></rect><rect x="186" y="95" width="11" height="11" rx="2" fill="#25222d"><title>2025-10-28: 0 contributions</title></rect><rect x="201" y="95" width="11" height="11" rx="2" fill="#25222d"><title>2025-11-04: 0 contributions</title></rect><rect x="216" y="95" width="11" height="11" rx="2" fill="#25222d"><title>2025-11-11: 0 contributions</title></rect><rect x="231" y="95" width="11" height="11" rx="2" fill="#25222d"><title>2025-11-18: 0 contributions</title></rect><rect x="246" y="95" width="11" height="11" rx="2" fill="#25222d"><title>2025-11-25: 0 contributions</title></rect><rect x="261" y="95" width="11" height="11" rx="2" fill="#25222d"><title>2025-12-02: 0 contributions</title></rect><rect x="276" y="95" width="11" height="11" rx="2" fill="#25222d"><title>2025-12-09: 0 contributions</title></rect><rect x="291" y="95" width="11" height="11" rx="2" fill="#25222d"><title>2025-12-16: 0 contributions</title></rect><rect x="306" y="95" width="11" height="11" rx="2" fill="#25222d"><title>2025-12-23: 0 contributions</title></rect><rect x="321" y="95" width="11" height="11" rx="2" fill="#25222d"><title>2025-12-30: 0 contributions</title></rect><rect x="336" y="95" width="11" height="11" rx="2" fill="#25222d"><title>2026-01-06: 0 contributions</title></rect><rect x="351" y="95" width="11" height="11" rx="2" fill="#25222d"><title>2026-01-13: 0 contributions</title></rect><rect x="366" y="95" width="11" height="11" rx="2" fill="#25222d"><title>2026-01-20: 0 contributions</title></rect><rect x="381" y="95" width="11" height="11" rx="2" fill="#25222d"><title>2026-01-27: 0 contributions</title></rect><rect x="396" y="95" width="11" height="11" rx="2" fill="#25222d"><title>2026-02-03: 0 contributions</title></rect><rect x="411" y="95" width="11" height="11" rx="2" fill="#25222d"><title>2026-02-10: 0 contributions</title></rect><rect x="426" y="95" width="11" height="11" rx="2" fill="#25222d"><title>2026-02-17: 0 contributions</title></rect><rect x="441" y="95" width="11" height="11" rx="2" fill="#25222d"><title>2026-02-24: 0 contributions</title></rect><rect x="456" y="95" width="11" height="11" rx="2" fill="#25222d"><title>2026-03-03: 0 contributions</title></rect><rect x="471" y="95" width="11" height="11" rx="2" fill="#25222d"><title>2026-03-10: 0 contributions</title></rect><rect x="486" y="95" width="11" height="11" rx="2" fill="#25222d"><title>2026-03-17: 0 contributions</title></rect><rect x="501" y="95" width="11" height="11" rx="2" fill="#25222d"><title>2026-03-24: 0 contributions</title></rect><rect x="516" y="95" width="11" height="11" rx="2" fill="#25222d"><title>2026-03-31: 0 contributions</title></rect><rect x="531" y="95" width="11" height="11" rx="2" fill="#25222d"><title>2026-04-07: 0 contributions</title></rect><rect x="546" y="95" width="11" height="11" rx="2" fill="#25222d"><title>2026-04-14: 0 contributions</title></rect><rect x="561" y="95" width="11" height="11" rx="2" fill="#25222d"><title>2026-04-21: 0 contributions</title></rect><rect x="576" y="95" width="11" height="11" rx="2" fill="#25222d"><title>2026-04-28: 0 contributions</title></rect><rect x="591" y="95" width="11" height="11" rx="2" fill="#25222d"><title>2026-05-05: 0 contributions</title></rect><rect x="606" y="95" width="11" height="11" rx="2" fill="#25222d"><title>2026-05-12: 0 contributions</title></rect><rect x="621" y="95" width="11" height="11" rx="2" fill="#25222d"><title>2026-05-19: 0 contributions</title></rect><rect x="636" y="95" width="11" height="11" rx="2" fill="#25222d"><title>2026-05-26: 0 contributions</title></rect><rect x="651" y="95" width="11" height="11" rx="2" fill="#25222d"><title>2026-06-02: 0 contributions</title></rect><rect x="666" y="95" width="11" height="11" rx="2" fill="#25222d"><title>2026-06-09: 0 contributions</title></rect><rect x="681" y="95" width="11" height="11" rx="2" fill="#25222d"><title>2026-06-16: 0 contributions</title></rect><rect x="696" y="95" width="11" height="11" rx="2" fill="#25222d"><title>2026-06-23: 0 contributions</title></rect><rect x="711" y="95" width="11" height="11" rx="2" fill="#25222d"><title>2026-06-30: 0 contributions</title></rect><rect x="726" y="95" width="11" height="11" rx="2" fill="#25222d"><title>2026-07-07: 0 contributions</title></rect><rect x="741" y="95" width="11" height="11" rx="2" fill="#25222d"><title>2026-07-14: 0 contributions</title></rect><rect x="756" y="95" width="11" height="11" rx="2" fill="#25222d"><title>2026-07-21: 0 contributions</title></rect><rect x="771" y="95" width="11" height="11" rx="2" fill="#25222d"><title>2026-07-28: 0 contributions</title></rect><rect x="786" y="95" width="11" height="11" rx="2" fill="#25222d"><title>2026-08-04: 0 contributions</title></rect><rect x="801" y="95" width="11" height="11" rx="2" fill="#25222d"><title>2026-08-11: 0 contributions</title></rect><rect x="816" y="95" width="11" height="11" rx="2" fill="#25222d"><title>2026-08-18: 0 contributions</title></rect><rect x="831" y="95" width="11" height="11" rx="2" fill="#25222d"><title>2026-08-25: 0 contributions</title></rect><rect x="66" y="110" width="11" height="11" rx="2" fill="#25222d"><title>2025-09-03: 0 contributions</title></rect><rect x="81" y="110" width="11" height="11" rx="2" fill="#25222d"><title>2025-09-10: 0 contributions</title></rect><rect x="96" y="110" width="11" height="11" rx="2" fill="#25222d"><title>2025-09-17: 0 contributions</title></rect><rect x="111" y="110" width="11" height="11" rx="2" fill="#25222d"><title>2025-09-24: 0 contributions</title></rect><rect x="126" y="110" width="11" height="11" rx="2" fill="#25222d"><title>2025-10-01: 0 contributions</title></rect><rect x="141" y="110" width="11" height="11" rx="2" fill="#25222d"><title>2025-10-08: 0 contributions</title></rect><rect x="156" y="110" width="11" height="11" rx="2" fill="#25222d"><title>2025-10-15: 0 contributions</title></rect><rect x="171" y="110" width="11" height="11" rx="2" fill="#25222d"><title>2025-10-22: 0 contributions</title></rect><rect x="186" y="110" width="11" height="11" rx="2" fill="#25222d"><title>2025-10-29: 0 contributions</title></rect><rect x="201" y="110" width="11" height="11" rx="2" fill="#25222d"><title>2025-11-05: 0 contributions</title></rect><rect x="216" y="110" width="11" height="11" rx="2" fill="#25222d"><title>2025-11-12: 0 contributions</title></rect><rect x="231" y="110" width="11" height="11" rx="2" fill="#25222d"><title>2025-11-19: 0 contributions</title></rect><rect x="246" y="110" width="11" height="11" rx="2" fill="#25222d"><title>2025-11-26: 0 contributions</title></rect><rect x="261" y="110" width="11" height="11" rx="2" fill="#25222d"><title>2025-12-03: 0 contributions</title></rect><rect x="276" y="110" width="11" height="11" rx="2" fill="#25222d"><title>2025-12-10: 0 contributions</title></rect><rect x="291" y="110" width="11" height="11" rx="2" fill="#25222d"><title>2025-12-17: 0 contributions</title></rect><rect x="306" y="110" width="11" height="11" rx="2" fill="#25222d"><title>2025-12-24: 0 contributions</title></rect><rect x="321" y="110" width="11" height="11" rx="2" fill="#25222d"><title>2025-12-31: 0 contributions</title></rect><rect x="336" y="110" width="11" height="11" rx="2" fill="#25222d"><title>2026-01-07: 0 contributions</title></rect><rect x="351" y="110" width="11" height="11" rx="2" fill="#25222d"><title>2026-01-14: 0 contributions</title></rect><rect x="366" y="110" width="11" height="11" rx="2" fill="#25222d"><title>2026-01-21: 0 contributions</title></rect><rect x="381" y="110" width="11" height="11" rx="2" fill="#25222d"><title>2026-01-28: 0 contributions</title></rect><rect x="396" y="110" width="11" height="11" rx="2" fill="#25222d"><title>2026-02-04: 0 contributions</title></rect><rect x="411" y="110" width="11" height="11" rx="2" fill="#25222d"><title>2026-02-11: 0 contributions</title></rect><rect x="426" y="110" width="11" height="11" rx="2" fill="#25222d"><title>2026-02-18: 0 contributions</title></rect><rect x="441" y="110" width="11" height="11" rx="2" fill="#25222d"><title>2026-02-25: 0 contributions</title></rect><rect x="456" y="110" width="11" height="11" rx="2" fill="#25222d"><title>2026-03-04: 0 contributions</title></rect><rect x="471" y="110" width="11" height="11" rx="2" fill="#25222d"><title>2026-03-11: 0 contributions</title></rect><rect x="486" y="110" width="11" height="11" rx="2" fill="#25222d"><title>2026-03-18: 0 contributions</title></rect><rect x="501" y="110" width="11" height="11" rx="2" fill="#25222d"><title>2026-03-25: 0 contributions</title></rect><rect x="516" y="110" width="11" height="11" rx="2" fill="#25222d"><title>2026-04-01: 0 contributions</title></rect><rect x="531" y="110" width="11" height="11" rx="2" fill="#25222d"><title>2026-04-08: 0 contributions</title></rect><rect x="546" y="110" width="11" height="11" rx="2" fill="#25222d"><title>2026-04-15: 0 contributions</title></rect><rect x="561" y="110" width="11" height="11" rx="2" fill="#25222d"><title>2026-04-22: 0 contributions</title></rect><rect x="576" y="110" width="11" height="11" rx="2" fill="#25222d"><title>2026-04-29: 0 contributions</title></rect><rect x="591" y="110" width="11" height="11" rx="2" fill="#25222d"><title>2026-05-06: 0 contributions</title></rect><rect x="606" y="110" width="11" height="11" rx="2" fill="#25222d"><title>2026-05-13: 0 contributions</title></rect><rect x="621" y="110" width="11" height="11" rx="2" fill="#25222d"><title>2026-05-20: 0 contributions</title></rect><rect x="636" y="110" width="11" height="11" rx="2" fill="#25222d"><title>2026-05-27: 0 contributions</title></rect><rect x="651" y="110" width="11" height="11" rx="2" fill="#25222d"><title>2026-06-03: 0 contributions</title></rect><rect x="666" y="110" width="11" height="11" rx="2" fill="#25222d"><title>2026-06-10: 0 contributions</title></rect><rect x="681" y="110" width="11" height="11" rx="2" fill="#25222d"><title>2026-06-17: 0 contributions</title></rect><rect x="696" y="110" width="11" height="11" rx="2" fill="#25222d"><title>2026-06-24: 0 contributions</title></rect><rect x="711" y="110" width="11" height="11" rx="2" fill="#25222d"><title>2026-07-01: 0 contributions</title></rect><rect x="726" y="110" width="11" height="11" rx="2" fill="#25222d"><title>2026-07-08: 0 contributions</title></rect><rect x="741" y="110" width="11" height="11" rx="2" fill="#25222d"><title>2026-07-15: 0 contributions</title></rect><rect x="756" y="110" width="11" height="11" rx="2" fill="#25222d"><title>2026-07-22: 0 contributions</title></rect><rect x="771" y="110" width="11" height="11" rx="2" fill="#25222d"><title>2026-07-29: 0 contributions</title></rect><rect x="786" y="110" width="11" height="11" rx="2" fill="#25222d"><title>2026-08-05: 0 contributions</title></rect><rect x="801" y="110" width="11" height="11" rx="2" fill="#25222d"><title>2026-08-12: 0 contributions</title></rect><rect x="816" y="110" width="11" height="11" rx="2" fill="#25222d"><title>2026-08-19: 0 contributions</title></rect><rect x="831" y="110" width="11" height="11" rx="2" fill="#25222d"><title>2026-08-26: 0 contributions</title></rect><rect x="66" y="125" width="11" height="11" rx="2" fill="#25222d"><title>2025-09-04: 0 contributions</title></rect><rect x="81" y="125" width="11" height="11" rx="2" fill="#25222d"><title>2025-09-11: 0 contributions</title></rect><rect x="96" y="125" width="11" height="11" rx="2" fill="#25222d"><title>2025-09-18: 0 contributions</title></rect><rect x="111" y="125" width="11" height="11" rx="2" fill="#25222d"><title>2025-09-25: 0 contributions</title></rect><rect x="126" y="125" width="11" height="11" rx="2" fill="#25222d"><title>2025-10-02: 0 contributions</title></rect><rect x="141" y="125" width="11" height="11" rx="2" fill="#25222d"><title>2025-10-09: 0 contributions</title></rect><rect x="156" y="125" width="11" height="11" rx="2" fill="#25222d"><title>2025-10-16: 0 contributions</title></rect><rect x="171" y="125" width="11" height="11" rx="2" fill="#25222d"><title>2025-10-23: 0 contributions</title></rect><rect x="186" y="125" width="11" height="11" rx="2" fill="#25222d"><title>2025-10-30: 0 contributions</title></rect><rect x="201" y="125" width="11" height="11" rx="2" fill="#25222d"><title>2025-11-06: 0 contributions</title></rect><rect x="216" y="125" width="11" height="11" rx="2" fill="#25222d"><title>2025-11-13: 0 contributions</title></rect><rect x="231" y="125" width="11" height="11" rx="2" fill="#25222d"><title>2025-11-20: 0 contributions</title></rect><rect x="246" y="125" width="11" height="11" rx="2" fill="#25222d"><title>2025-11-27: 0 contributions</title></rect><rect x="261" y="125" width="11" height="11" rx="2" fill="#25222d"><title>2025-12-04: 0 contributions</title></rect><rect x="276" y="125" width="11" height="11" rx="2" fill="#25222d"><title>2025-12-11: 0 contributions</title></rect><rect x="291" y="125" width="11" height="11" rx="2" fill="#25222d"><title>2025-12-18: 0 contributions</title></rect><rect x="306" y="125" width="11" height="11" rx="2" fill="#25222d"><title>2025-12-25: 0 contributions</title></rect><rect x="321" y="125" width="11" height="11" rx="2" fill="#25222d"><title>2026-01-01: 0 contributions</title></rect><rect x="336" y="125" width="11" height="11" rx="2" fill="#25222d"><title>2026-01-08: 0 contributions</title></rect><rect x="351" y="125" width="11" height="11" rx="2" fill="#25222d"><title>2026-01-15: 0 contributions</title></rect><rect x="366" y="125" width="11" height="11" rx="2" fill="#25222d"><title>2026-01-22: 0 contributions</title></rect><rect x="381" y="125" width="11" height="11" rx="2" fill="#25222d"><title>2026-01-29: 0 contributions</title></rect><rect x="396" y="125" width="11" height="11" rx="2" fill="#25222d"><title>2026-02-05: 0 contributions</title></rect><rect x="411" y="125" width="11" height="11" rx="2" fill="#25222d"><title>2026-02-12: 0 contributions</title></rect><rect x="426" y="125" width="11" height="11" rx="2" fill="#25222d"><title>2026-02-19: 0 contributions</title></rect><rect x="441" y="125" width="11" height="11" rx="2" fill="#25222d"><title>2026-02-26: 0 contributions</title></rect><rect x="456" y="125" width="11" height="11" rx="2" fill="#25222d"><title>2026-03-05: 0 contributions</title></rect><rect x="471" y="125" width="11" height="11" rx="2" fill="#25222d"><title>2026-03-12: 0 contributions</title></rect><rect x="486" y="125" width="11" height="11" rx="2" fill="#25222d"><title>2026-03-19: 0 contributions</title></rect><rect x="501" y="125" width="11" height="11" rx="2" fill="#25222d"><title>2026-03-26: 0 contributions</title></rect><rect x="516" y="125" width="11" height="11" rx="2" fill="#25222d"><title>2026-04-02: 0 contributions</title></rect><rect x="531" y="125" width="11" height="11" rx="2" fill="#25222d"><title>2026-04-09: 0 contributions</title></rect><rect x="546" y="125" width="11" height="11" rx="2" fill="#25222d"><title>2026-04-16: 0 contributions</title></rect><rect x="561" y="125" width="11" height="11" rx="2" fill="#25222d"><title>2026-04-23: 0 contributions</title></rect><rect x="576" y="125" width="11" height="11" rx="2" fill="#25222d"><title>2026-04-30: 0 contributions</title></rect><rect x="591" y="125" width="11" height="11" rx="2" fill="#25222d"><title>2026-05-07: 0 contributions</title></rect><rect x="606" y="125" width="11" height="11" rx="2" fill="#25222d"><title>2026-05-14: 0 contributions</title></rect><rect x="621" y="125" width="11" height="11" rx="2" fill="#25222d"><title>2026-05-21: 0 contributions</title></rect><rect x="636" y="125" width="11" height="11" rx="2" fill="#25222d"><title>2026-05-28: 0 contributions</title></rect><rect x="651" y="125" width="11" height="11" rx="2" fill="#25222d"><title>2026-06-04: 0 contributions</title></rect><rect x="666" y="125" width="11" height="11" rx="2" fill="#25222d"><title>2026-06-11: 0 contributions</title></rect><rect x="681" y="125" width="11" height="11" rx="2" fill="#25222d"><title>2026-06-18: 0 contributions</title></rect><rect x="696" y="125" width="11" height="11" rx="2" fill="#25222d"><title>2026-06-25: 0 contributions</title></rect><rect x="711" y="125" width="11" height="11" rx="2" fill="#25222d"><title>2026-07-02: 0 contributions</title></rect><rect x="726" y="125" width="11" height="11" rx="2" fill="#25222d"><title>2026-07-09: 0 contributions</title></rect><rect x="741" y="125" width="11" height="11" rx="2" fill="#25222d"><title>2026-07-16: 0 contributions</title></rect><rect x="756" y="125" width="11" height="11" rx="2" fill="#25222d"><title>2026-07-23: 0 contributions</title></rect><rect x="771" y="125" width="11" height="11" rx="2" fill="#25222d"><title>2026-07-30: 0 contributions</title></rect><rect x="786" y="125" width="11" height="11" rx="2" fill="#25222d"><title>2026-08-06: 0 contributions</title></rect><rect x="801" y="125" width="11" height="11" rx="2" fill="#25222d"><title>2026-08-13: 0 contributions</title></rect><rect x="816" y="125" width="11" height="11" rx="2" fill="#25222d"><title>2026-08-20: 0 contributions</title></rect><rect x="831" y="125" width="11" height="11" rx="2" fill="#25222d"><title>2026-08-27: 0 contributions</title></rect><rect x="66" y="140" width="11" height="11" rx="2" fill="#25222d"><title>2025-09-05: 0 contributions</title></rect><rect x="81" y="140" width="11" height="11" rx="2" fill="#25222d"><title>2025-09-12: 0 contributions</title></rect><rect x="96" y="140" width="11" height="11" rx="2" fill="#25222d"><title>2025-09-19: 0 contributions</title></rect><rect x="111" y="140" width="11" height="11" rx="2" fill="#25222d"><title>2025-09-26: 0 contributions</title></rect><rect x="126" y="140" width="11" height="11" rx="2" fill="#25222d"><title>2025-10-03: 0 contributions</title></rect><rect x="141" y="140" width="11" height="11" rx="2" fill="#25222d"><title>2025-10-10: 0 contributions</title></rect><rect x="156" y="140" width="11" height="11" rx="2" fill="#25222d"><title>2025-10-17: 0 contributions</title></rect><rect x="171" y="140" width="11" height="11" rx="2" fill="#25222d"><title>2025-10-24: 0 contributions</title></rect><rect x="186" y="140" width="11" height="11" rx="2" fill="#25222d"><title>2025-10-31: 0 contributions</title></rect><rect x="201" y="140" width="11" height="11" rx="2" fill="#25222d"><title>2025-11-07: 0 contributions</title></rect><rect x="216" y="140" width="11" height="11" rx="2" fill="#25222d"><title>2025-11-14: 0 contributions</title></rect><rect x="231" y="140" width="11" height="11" rx="2" fill="#25222d"><title>2025-11-21: 0 contributions</title></rect><rect x="246" y="140" width="11" height="11" rx="2" fill="#25222d"><title>2025-11-28: 0 contributions</title></rect><rect x="261" y="140" width="11" height="11" rx="2" fill="#25222d"><title>2025-12-05: 0 contributions</title></rect><rect x="276" y="140" width="11" height="11" rx="2" fill="#25222d"><title>2025-12-12: 0 contributions</title></rect><rect x="291" y="140" width="11" height="11" rx="2" fill="#25222d"><title>2025-12-19: 0 contributions</title></rect><rect x="306" y="140" width="11" height="11" rx="2" fill="#25222d"><title>2025-12-26: 0 contributions</title></rect><rect x="321" y="140" width="11" height="11" rx="2" fill="#25222d"><title>2026-01-02: 0 contributions</title></rect><rect x="336" y="140" width="11" height="11" rx="2" fill="#25222d"><title>2026-01-09: 0 contributions</title></rect><rect x="351" y="140" width="11" height="11" rx="2" fill="#25222d"><title>2026-01-16: 0 contributions</title></rect><rect x="366" y="140" width="11" height="11" rx="2" fill="#25222d"><title>2026-01-23: 0 contributions</title></rect><rect x="381" y="140" width="11" height="11" rx="2" fill="#25222d"><title>2026-01-30: 0 contributions</title></rect><rect x="396" y="140" width="11" height="11" rx="2" fill="#25222d"><title>2026-02-06: 0 contributions</title></rect><rect x="411" y="140" width="11" height="11" rx="2" fill="#25222d"><title>2026-02-13: 0 contributions</title></rect><rect x="426" y="140" width="11" height="11" rx="2" fill="#25222d"><title>2026-02-20: 0 contributions</title></rect><rect x="441" y="140" width="11" height="11" rx="2" fill="#25222d"><title>2026-02-27: 0 contributions</title></rect><rect x="456" y="140" width="11" height="11" rx="2" fill="#25222d"><title>2026-03-06: 0 contributions</title></rect><rect x="471" y="140" width="11" height="11" rx="2" fill="#25222d"><title>2026-03-13: 0 contributions</title></rect><rect x="486" y="140" width="11" height="11" rx="2" fill="#25222d"><title>2026-03-20: 0 contributions</title></rect><rect x="501" y="140" width="11" height="11" rx="2" fill="#25222d"><title>2026-03-27: 0 contributions</title></rect><rect x="516" y="140" width="11" height="11" rx="2" fill="#25222d"><title>2026-04-03: 0 contributions</title></rect><rect x="531" y="140" width="11" height="11" rx="2" fill="#25222d"><title>2026-04-10: 0 contributions</title></rect><rect x="546" y="140" width="11" height="11" rx="2" fill="#25222d"><title>2026-04-17: 0 contributions</title></rect><rect x="561" y="140" width="11" height="11" rx="2" fill="#25222d"><title>2026-04-24: 0 contributions</title></rect><rect x="576" y="140" width="11" height="11" rx="2" fill="#25222d"><title>2026-05-01: 0 contributions</title></rect><rect x="591" y="140" width="11" height="11" rx="2" fill="#25222d"><title>2026-05-08: 0 contributions</title></rect><rect x="606" y="140" width="11" height="11" rx="2" fill="#25222d"><title>2026-05-15: 0 contributions</title></rect><rect x="621" y="140" width="11" height="11" rx="2" fill="#25222d"><title>2026-05-22: 0 contributions</title></rect><rect x="636" y="140" width="11" height="11" rx="2" fill="#25222d"><title>2026-05-29: 0 contributions</title></rect><rect x="651" y="140" width="11" height="11" rx="2" fill="#25222d"><title>2026-06-05: 0 contributions</title></rect><rect x="666" y="140" width="11" height="11" rx="2" fill="#25222d"><title>2026-06-12: 0 contributions</title></rect><rect x="681" y="140" width="11" height="11" rx="2" fill="#25222d"><title>2026-06-19: 0 contributions</title></rect><rect x="696" y="140" width="11" height="11" rx="2" fill="#25222d"><title>2026-06-26: 0 contributions</title></rect><rect x="711" y="140" width="11" height="11" rx="2" fill="#25222d"><title>2026-07-03: 0 contributions</title></rect><rect x="726" y="140" width="11" height="11" rx="2" fill="#25222d"><title>2026-07-10: 0 contributions</title></rect><rect x="741" y="140" width="11" height="11" rx="2" fill="#25222d"><title>2026-07-17: 0 contributions</title></rect><rect x="756" y="140" width="11" height="11" rx="2" fill="#25222d"><title>2026-07-24: 0 contributions</title></rect><rect x="771" y="140" width="11" height="11" rx="2" fill="#25222d"><title>2026-07-31: 0 contributions</title></rect><rect x="786" y="140" width="11" height="11" rx="2" fill="#25222d"><title>2026-08-07: 0 contributions</title></rect><rect x="801" y="140" width="11" height="11" rx="2" fill="#25222d"><title>2026-08-14: 0 contributions</title></rect><rect x="816" y="140" width="11" height="11" rx="2" fill="#25222d"><title>2026-08-21: 0 contributions</title></rect><rect x="831" y="140" width="11" height="11" rx="2" fill="#9b74d5"><title>2026-08-28: 7 contributions</title></rect><rect x="66" y="155" width="11" height="11" rx="2" fill="#25222d"><title>2025-09-06: 0 contributions</title></rect><rect x="81" y="155" width="11" height="11" rx="2" fill="#25222d"><title>2025-09-13: 0 contributions</title></rect><rect x="96" y="155" width="11" height="11" rx="2" fill="#25222d"><title>2025-09-20: 0 contributions</title></rect><rect x="111" y="155" width="11" height="11" rx="2" fill="#25222d"><title>2025-09-27: 0 contributions</title></rect><rect x="126" y="155" width="11" height="11" rx="2" fill="#25222d"><title>2025-10-04: 0 contributions</title></rect><rect x="141" y="155" width="11" height="11" rx="2" fill="#25222d"><title>2025-10-11: 0 contributions</title></rect><rect x="156" y="155" width="11" height="11" rx="2" fill="#25222d"><title>2025-10-18: 0 contributions</title></rect><rect x="171" y="155" width="11" height="11" rx="2" fill="#25222d"><title>2025-10-25: 0 contributions</title></rect><rect x="186" y="155" width="11" height="11" rx="2" fill="#25222d"><title>2025-11-01: 0 contributions</title></rect><rect x="201" y="155" width="11" height="11" rx="2" fill="#25222d"><title>2025-11-08: 0 contributions</title></rect><rect x="216" y="155" width="11" height="11" rx="2" fill="#25222d"><title>2025-11-15: 0 contributions</title></rect><rect x="231" y="155" width="11" height="11" rx="2" fill="#25222d"><title>2025-11-22: 0 contributions</title></rect><rect x="246" y="155" width="11" height="11" rx="2" fill="#25222d"><title>2025-11-29: 0 contributions</title></rect><rect x="261" y="155" width="11" height="11" rx="2" fill="#25222d"><title>2025-12-06: 0 contributions</title></rect><rect x="276" y="155" width="11" height="11" rx="2" fill="#25222d"><title>2025-12-13: 0 contributions</title></rect><rect x="291" y="155" width="11" height="11" rx="2" fill="#25222d"><title>2025-12-20: 0 contributions</title></rect><rect x="306" y="155" width="11" height="11" rx="2" fill="#25222d"><title>2025-12-27: 0 contributions</title></rect><rect x="321" y="155" width="11" height="11" rx="2" fill="#25222d"><title>2026-01-03: 0 contributions</title></rect><rect x="336" y="155" width="11" height="11" rx="2" fill="#25222d"><title>2026-01-10: 0 contributions</title></rect><rect x="351" y="155" width="11" height="11" rx="2" fill="#25222d"><title>2026-01-17: 0 contributions</title></rect><rect x="366" y="155" width="11" height="11" rx="2" fill="#25222d"><title>2026-01-24: 0 contributions</title></rect><rect x="381" y="155" width="11" height="11" rx="2" fill="#25222d"><title>2026-01-31: 0 contributions</title></rect><rect x="396" y="155" width="11" height="11" rx="2" fill="#25222d"><title>2026-02-07: 0 contributions</title></rect><rect x="411" y="155" width="11" height="11" rx="2" fill="#25222d"><title>2026-02-14: 0 contributions</title></rect><rect x="426" y="155" width="11" height="11" rx="2" fill="#25222d"><title>2026-02-21: 0 contributions</title></rect><rect x="441" y="155" width="11" height="11" rx="2" fill="#25222d"><title>2026-02-28: 0 contributions</title></rect><rect x="456" y="155" width="11" height="11" rx="2" fill="#25222d"><title>2026-03-07: 0 contributions</title></rect><rect x="471" y="155" width="11" height="11" rx="2" fill="#25222d"><title>2026-03-14: 0 contributions</title></rect><rect x="486" y="155" width="11" height="11" rx="2" fill="#25222d"><title>2026-03-21: 0 contributions</title></rect><rect x="501" y="155" width="11" height="11" rx="2" fill="#25222d"><title>2026-03-28: 0 contributions</title></rect><rect x="516" y="155" width="11" height="11" rx="2" fill="#25222d"><title>2026-04-04: 0 contributions</title></rect><rect x="531" y="155" width="11" height="11" rx="2" fill="#25222d"><title>2026-04-11: 0 contributions</title></rect><rect x="546" y="155" width="11" height="11" rx="2" fill="#25222d"><title>2026-04-18: 0 contributions</title></rect><rect x="561" y="155" width="11" height="11" rx="2" fill="#25222d"><title>2026-04-25: 0 contributions</title></rect><rect x="576" y="155" width="11" height="11" rx="2" fill="#25222d"><title>2026-05-02: 0 contributions</title></rect><rect x="591" y="155" width="11" height="11" rx="2" fill="#25222d"><title>2026-05-09: 0 contributions</title></rect><rect x="606" y="155" width="11" height="11" rx="2" fill="#25222d"><title>2026-05-16: 0 contributions</title></rect><rect x="621" y="155" width="11" height="11" rx="2" fill="#25222d"><title>2026-05-23: 0 contributions</title></rect><rect x="636" y="155" width="11" height="11" rx="2" fill="#25222d"><title>2026-05-30: 0 contributions</title></rect><rect x="651" y="155" width="11" height="11" rx="2" fill="#25222d"><title>2026-06-06: 0 contributions</title></rect><rect x="666" y="155" width="11" height="11" rx="2" fill="#25222d"><title>2026-06-13: 0 contributions</title></rect><rect x="681" y="155" width="11" height="11" rx="2" fill="#25222d"><title>2026-06-20: 0 contributions</title></rect><rect x="696" y="155" width="11" height="11" rx="2" fill="#25222d"><title>2026-06-27: 0 contributions</title></rect><rect x="711" y="155" width="11" height="11" rx="2" fill="#25222d"><title>2026-07-04: 0 contributions</title></rect><rect x="726" y="155" width="11" height="11" rx="2" fill="#25222d"><title>2026-07-11: 0 contributions</title></rect><rect x="741" y="155" width="11" height="11" rx="2" fill="#25222d"><title>2026-07-18: 0 contributions</title></rect><rect x="756" y="155" width="11" height="11" rx="2" fill="#25222d"><title>2026-07-25: 0 contributions</title></rect><rect x="771" y="155" width="11" height="11" rx="2" fill="#25222d"><title>2026-08-01: 0 contributions</title></rect><rect x="786" y="155" width="11" height="11" rx="2" fill="#25222d"><title>2026-08-08: 0 contributions</title></rect><rect x="801" y="155" width="11" height="11" rx="2" fill="#25222d"><title>2026-08-15: 0 contributions</title></rect><rect x="816" y="155" width="11" height="11" rx="2" fill="#7650ad"><title>2026-08-22: 5 contributions</title></rect><rect x="831" y="155" width="11" height="11" rx="2" fill="#9b74d5"><title>2026-08-29: 14 contributions</title></rect>
  <text x="24" y="190" fill="#e9e5f2" style="font: 600 13px -apple-system, BlinkMacSystemFont, Segoe UI, sans-serif">31 contributions / last 12 months</text>
  <text x="635" y="190" fill="#a399b4" style="font: 10px Consolas, monospace">LOW</text><rect x="770" y="182" width="11" height="11" rx="2" fill="#25222d"/><rect x="786" y="182" width="11" height="11" rx="2" fill="#3b275d"/><rect x="802" y="182" width="11" height="11" rx="2" fill="#563a85"/><rect x="818" y="182" width="11" height="11" rx="2" fill="#7650ad"/><rect x="834" y="182" width="11" height="11" rx="2" fill="#9b74d5"/><text x="857" y="190" fill="#a399b4" style="font: 10px Consolas, monospace">HIGH</text>
</svg>