<svg xmlns="http://www.w3.org/2000/svg" width="900" height="400" viewBox="0 0 900 400" role="img" aria-label="Thomas Smith profile card">
  <style>
    .ascii { font: 7px/5px 'SFMono-Regular', Consolas, monospace; letter-spacing: -.25px; fill: #c4adef; }
    .line { font: 13px 'SFMono-Regular', Consolas, 'Liberation Mono', monospace; }
    .title { font: 700 16px 'SFMono-Regular', Consolas, 'Liberation Mono', monospace; letter-spacing: 1px; }
    .micro { font: 10px 'SFMono-Regular', Consolas, 'Liberation Mono', monospace; letter-spacing: 1px; }
  </style>
  <defs>
    <pattern id="grid" width="18" height="18" patternUnits="userSpaceOnUse"><path d="M18 0H0V18" fill="none" stroke="#2b2437" stroke-width=".6"/></pattern>
    <pattern id="fineGrid" width="12" height="12" patternUnits="userSpaceOnUse"><path d="M12 0H0V12" fill="none" stroke="#2b2437" stroke-width=".5"/></pattern>
  </defs>
  <path d="M16 2H868L898 32V368L868 398H16L2 384V16Z" fill="#111018" stroke="#5b4a75" stroke-width="1.4"/>
  <path d="M16 11H862L889 38M889 362L862 389H16M11 384V16" fill="none" stroke="#7b61a8" stroke-width="1" opacity=".8"/>
  <rect x="16" y="55" width="868" height="326" fill="url(#grid)" opacity=".52"/>
  <path d="M25 86h98l10 10h135M875 86h-96l-10 10h-117M25 353h108M745 353h130" fill="none" stroke="#a58ad6" stroke-width="1.15"/>
  <text x="25" y="32" fill="#b79ae6" class="micro">THS // PROFILE INTERFACE</text>
  <text x="875" y="32" text-anchor="end" fill="#a399b4" class="micro">PARIS · FRANCE</text>
  <text x="25" y="74" fill="#e9e5f2" class="title">THOMAS SMITH</text>
  <text x="875" y="74" text-anchor="end" fill="#b79ae6" class="micro">PROFILE / 01</text>
  <rect x="25" y="110" width="345" height="225" fill="#151221" stroke="#44375a"/>
  <rect x="34" y="119" width="327" height="207" fill="url(#fineGrid)" opacity=".42"/>
  <path d="M25 110h62l9 9h64M370 110h-46l-9 9h-52M25 335h64M306 335h64" fill="none" stroke="#7b61a8" stroke-width="1"/>
  <text x="42" y="132" fill="#b79ae6" class="micro">PORTRAIT / ASCII</text>
  <text x="42" y="145" class="ascii" xml:space="preserve">@@@@@@@@@@@@@@@@@@@@@@@@@@@@@@@@@@@@@@@@@@@@@@@@@@@@@@@@@@@@@@@@</text><text x="42" y="150" class="ascii" xml:space="preserve">@@@@@@@@@@@@@@@@@@@@@@@@@@@%+:.-@@@@@@@@@@@@@@@@@@@@@@@@@@@@@@@@</text><text x="42" y="155" class="ascii" xml:space="preserve">@@@@@@@@@@@@@@@@@@@@@@@@@@        #@@@@@@@@@@@@@@@@@@@@@@@@@@@@@</text><text x="42" y="160" class="ascii" xml:space="preserve">@@@@@@@@@@@@@@@@@@@@@@@@+          :@@@@@@@@@@@@@@@@@@@@@@@@@@@@</text><text x="42" y="165" class="ascii" xml:space="preserve">@@@@@@@@@@@@@@@@@@@@@@@@     `      +@@@@@@@@@@@@@@@@@@@@@@@@@@@</text><text x="42" y="170" class="ascii" xml:space="preserve">@@@@@@@@@@@@@@@@@@@@@@@%             @@@@@@@@@@@@@@@@@@@@@@@@@@@</text><text x="42" y="175" class="ascii" xml:space="preserve">@@@@@@@@@@@@@@@@@@@@@@@   ..         @@@@@@@@@@@@@@@@@@@@@@@@@@@</text><text x="42" y="180" class="ascii" xml:space="preserve">@@@@@@@@@@@@@@@@@@@@@@@  +@@@@#%#+`  #@@@@@@@@@@@@@@@@@@@@@@@@@@</text><text x="42" y="185" class="ascii" xml:space="preserve">@@@@@@@@@@@@@@@@@@@@@@@  @@%%###*=+  *@@@@@@@@@@@@@@@@@@@@@@@@@@</text><text x="42" y="190" class="ascii" xml:space="preserve">@@@@@@@@@@@@@@@@@@@@@@@  @@@%##%#=+  #@@@@@@@@@@@@@@@@@@@@@@@@@@</text><text x="42" y="195" class="ascii" xml:space="preserve">@@@@@@@@@@@@@@@@@@@@@@@  @%####+:.*: @@@@@@@@@@@@@@@@@@@@@@@@@@@</text><text x="42" y="200" class="ascii" xml:space="preserve">@@@@@@@@@@@@@@@@@@@@@@@ .%   +=   `* @@@@@@@@@@@@@@@@@@@@@@@@@@@</text><text x="42" y="205" class="ascii" xml:space="preserve">@@@@@@@@@@@@@@@@@@@@@@@``*.  %-   .* @@@@@@@@@@@@@@@@@@@@@@@@@@@</text><text x="42" y="210" class="ascii" xml:space="preserve">@@@@@@@@@@@@@@@@@@@@@@@ =@#-=@: *+-* `@@@@@@@@@@@@@@@@@@@@@@@@@@</text><text x="42" y="215" class="ascii" xml:space="preserve">@@@@@@@@@@@@@@@@@@@@@@@.-@@%%@= **=# `@@@@@@@@@@@@@@@@@@@@@@@@@@</text><text x="42" y="220" class="ascii" xml:space="preserve">@@@@@@@@@@@@@@@@@@@@@@@--####%+.--:= *@@@@@@@@@@@@@@@@@@@@@@@@@@</text><text x="42" y="225" class="ascii" xml:space="preserve">@@@@@@@@@@@@@@@@@@@@@@@@-*###-  :::`.@@@@@@@@@@@@@@@@@@@@@@@@@@@</text><text x="42" y="230" class="ascii" xml:space="preserve">@@@@@@@@@@@@@@@@@@@@@@@@+=#*=+:  :`:@@@@@@@@@@@@@@@@@@@@@@@@@@@@</text><text x="42" y="235" class="ascii" xml:space="preserve">@@@@@@@@@@@@@@@@@@@@@@@@@:*+--: .: =@@@@@@@@@@@@@@@@@@@@@@@@@@@@</text><text x="42" y="240" class="ascii" xml:space="preserve">@@@@@@@@@@@@@@@@@@@@@@@@@=:*@= `:. %@@@@@@@@@@@@@@@@@@@@@@@@@@@@</text><text x="42" y="245" class="ascii" xml:space="preserve">@@@@@@@@@@@@@@@@@@@@@@@@@# :##--   @@@@@@@@@@@@@@@@@@@@@@@@@@@@@</text><text x="42" y="250" class="ascii" xml:space="preserve">@@@@@@@@@@@@@@@@@@@@@@@@@@  :+-.   @@@@@@@@@@@@@@@@@@@@@@@@@@@@@</text><text x="42" y="255" class="ascii" xml:space="preserve">@@@@@@@@@@@@@@@@@@@@@@@@@@#.      `  *@@@@@@@@@@@@@@@@@@@@@@@@@@</text><text x="42" y="260" class="ascii" xml:space="preserve">@@@@@@@@@@@@@@@@@@@@@@@@=.%#=.   .:.  #@@@@@@@@@@@@@@@@@@@@@@@@@</text><text x="42" y="265" class="ascii" xml:space="preserve">@@@@@@@@@@@@@@@@@@@@@@@#  @##*` .``.   . %@@@@@@@@@@@@@@@@@@@@@@</text><text x="42" y="270" class="ascii" xml:space="preserve">@@@@@@@@@@@@@@@@@@@@- +. #@#*+``-:.  -  `.%@@@@@@@@@@@@@@@@@@@@@</text><text x="42" y="275" class="ascii" xml:space="preserve">@@@@@@@@@@@@@@@@@@@% =@  @%#*+=+*-:  -`=.  #@@@@@@@@@@@@@@@@@@@@</text><text x="42" y="280" class="ascii" xml:space="preserve">@@@@@@@@@@@@@@@@@@@- @#  =@@%*#@%=  =:-   --*@@@@@@@@@@@@@@@@@@@</text><text x="42" y="285" class="ascii" xml:space="preserve">@@@@@@@@@@@@@@@@@#=: @+   `*#*#+.   %=  .**=``*@@@@@@@@@@@@@@@@@</text><text x="42" y="290" class="ascii" xml:space="preserve">@@@@@@@@@@@@@@@%=-+*.%-            +%   #*===-.:@@@@@@@@@@@@@@@@</text><text x="42" y="295" class="ascii" xml:space="preserve">@@@@@@@@@@@@@@+-+++==%%            @   =#+==--: .@@@@@@@@@@@@@@@</text><text x="42" y="300" class="ascii" xml:space="preserve">@@@@@@@@@@@@@#:+++==+@%           *@  :+*+=---:. +@@@@@@@@@@@@@@</text><text x="42" y="305" class="ascii" xml:space="preserve">@@@@@@@@@@@@@-=+++--+@+           @: ``++=-=::`...@@@@@@@@@@@@@@</text><text x="42" y="310" class="ascii" xml:space="preserve">@@@@@@@@@@@@%-=++++ =@=          `@  =`+=:-+`:::` +@@@@@@@@@@@@@</text><text x="42" y="315" class="ascii" xml:space="preserve">@@@@@@@@@@@@+=+==+-.+@-          #` ==.+-.==.-`-:..@@@@@@@@@@@@@</text><text x="42" y="320" class="ascii" xml:space="preserve">@@@@@@@@@@@@==+==+=`+@`          % .#-`+: +- ::=`. #@@@@@@@@@@@@</text><text x="42" y="325" class="ascii" xml:space="preserve">@@@@@@@@@@@@-=+=+*-:+@          `: +*-`*` *: :--.. -@@@@@@@@@@@@</text><text x="42" y="330" class="ascii" xml:space="preserve">@@@@@@@@@@@#-+=+=*--*@          : `*+:.+`.#: .`: . .@@@@@@@@@@@@</text><text x="42" y="335" class="ascii" xml:space="preserve">@@@@@@@@@@@*:=-==#-+*%          ` *++:`=.`#:  := .. @@@@@@@@@@@@</text><text x="42" y="340" class="ascii" xml:space="preserve">@@@@@@@@@@@+:-:==*=+*%            #=+:`- `*`  +- `- *@@@@@@@@@@@</text><text x="42" y="345" class="ascii" xml:space="preserve">@@@@@@@@@@@+--.--+-+##           `+==:.` :*.  +` == `@@@@@@@@@@@</text><text x="42" y="350" class="ascii" xml:space="preserve">@@@@@@@@@@@+==.-=+:+**           -+--:.`.-+   +.`*=. %@@@@@@@@@@</text><text x="42" y="355" class="ascii" xml:space="preserve">@@@@@@@@@@@-==:==+:++=           =+-:` ..-+   = -*:  -@@@@@@@@@@</text>
  <path d="M396 110H875M396 335H875" stroke="#44375a" stroke-width="1"/>
  <path d="M396 110h76l9 9h100M875 110h-76l-9 9h-82" fill="none" stroke="#a58ad6" stroke-width="1.15"/>
  <text x="420" y="132" fill="#e9e5f2" class="title">IDENTITY / DATA CARD</text>
  <text x="850" y="132" text-anchor="end" fill="#b79ae6" class="micro">ONLINE</text>
  <text x="420" y="160" class="line"><tspan fill="#b79ae6">NAME        </tspan><tspan fill="#e9e5f2">  Thomas Smith</tspan></text><text x="420" y="184" class="line"><tspan fill="#b79ae6">ROLE        </tspan><tspan fill="#e9e5f2">  Student &amp; Entrepreneur</tspan></text><text x="420" y="208" class="line"><tspan fill="#b79ae6">UNIVERSITY  </tspan><tspan fill="#e9e5f2">  Université Paris-Saclay · UVSQ</tspan></text><text x="420" y="232" class="line"><tspan fill="#b79ae6">LOCATION    </tspan><tspan fill="#e9e5f2">  Paris, France</tspan></text><text x="420" y="280" class="line"><tspan fill="#b79ae6">EDUCATION   </tspan><tspan fill="#e9e5f2">  BSc Mathematics &amp; Physics — in progress</tspan></text><text x="420" y="304" class="line"><tspan fill="#b79ae6">INTERESTS   </tspan><tspan fill="#e9e5f2">  Artificial Intelligence · Web Development</tspan></text><text x="420" y="328" class="line"><tspan fill="#b79ae6">//          </tspan><tspan fill="#e9e5f2">  Computer Science · Cybersecurity</tspan></text>
  <rect x="405" y="350" width="450" height="27" fill="#1b1724" stroke="#44375a"/>
  <circle cx="424" cy="364" r="5" fill="#9b7bd1"/><circle cx="424" cy="364" r="2" fill="#efe9ff"/>
  <text x="439" y="368" fill="#c5bbd4" class="micro">STATUS: BUILDING / LEARNING / EXPLORING</text>
  <path d="M25 378h100M715 378h160" stroke="#b79ae6" stroke-width="2"/>
</svg>